<svg version="1.1" id="Layer_1" xmlns="http://www.w3.org/2000/svg" xmlns:xlink="http://www.w3.org/1999/xlink" x="0px" y="0px"
	 width="100%" viewBox="0 0 157 178" enable-background="new 0 0 157 178" xml:space="preserve">
<path fill="#FEFDFC" opacity="1.000000" stroke="none" 
	d="
M78.000000,179.000000 
	C52.000004,179.000000 26.500006,179.000000 1.000007,179.000000 
	C1.000005,119.666679 1.000005,60.333355 1.000002,1.000015 
	C51.999985,1.000000 103.000092,1.043623 153.999680,0.902525 
	C157.424850,0.893048 158.105362,1.575078 158.097122,5.000185 
	C157.960648,61.666512 157.960663,118.333359 158.097122,174.999695 
	C158.105362,178.424530 157.428116,179.126175 153.999329,179.100739 
	C128.834030,178.914093 103.666695,179.000000 78.000000,179.000000 
z"/>
<path fill="#DB3755" opacity="1.000000" stroke="none" 
	d="
M142.124207,177.539124 
	C100.878883,177.659958 60.053005,177.740143 19.227262,177.694504 
	C9.632037,177.683777 2.948359,170.842392 2.915030,161.197067 
	C2.840173,139.534042 2.848926,117.870438 2.912686,96.207336 
	C2.941239,86.506065 9.550768,79.898773 19.164259,79.709892 
	C20.496868,79.683716 21.849512,79.561768 23.159914,79.734406 
	C26.786793,80.212204 27.607752,78.515099 27.675220,75.146576 
	C27.888216,64.512138 26.522966,53.806690 28.815844,43.253239 
	C33.976658,19.499527 56.192146,2.338473 80.980659,2.924437 
	C104.896835,3.489780 126.071587,21.889891 130.198334,45.579430 
	C131.901413,55.355865 130.903824,65.191040 130.981735,74.994293 
	C131.011215,78.701637 131.931046,80.226295 135.725662,79.724464 
	C148.813553,77.993629 156.398743,87.359917 156.025620,99.997932 
	C155.435745,119.977409 155.904449,139.987152 155.851608,159.983902 
	C155.826965,169.303268 151.491364,174.884827 142.124207,177.539124 
z"/>
<path fill="#FDFBFC" opacity="1.000000" stroke="none" 
	d="
M56.591751,44.848251 
	C62.837486,33.085873 73.384048,28.050396 85.418114,30.829430 
	C96.205215,33.320503 103.702446,42.878906 104.099762,55.049137 
	C104.327950,62.038670 104.051491,69.043579 104.200134,76.037354 
	C104.260414,78.873352 103.256302,79.785034 100.434830,79.762863 
	C86.275360,79.651588 72.114540,79.709824 57.954201,79.711853 
	C56.262585,79.712097 54.300022,79.884933 54.414940,77.409836 
	C54.914028,66.660500 52.704308,55.739185 56.591751,44.848251 
z"/>
</svg>