<svg version="1.1" id="Layer_1" xmlns="http://www.w3.org/2000/svg" xmlns:xlink="http://www.w3.org/1999/xlink" x="0px" y="0px"
	 width="100%" viewBox="0 0 157 178" enable-background="new 0 0 157 178" xml:space="preserve">
<path fill="#FEFEFD" opacity="1.000000" stroke="none" 
	d="
M158.000000,72.000000 
	C158.000000,107.999992 158.000000,143.499985 158.000000,179.000000 
	C105.666679,179.000000 53.333366,179.000000 1.000035,179.000000 
	C1.000024,119.666695 1.000024,60.333385 1.000012,1.000059 
	C53.333298,1.000040 105.666595,1.000040 157.999939,1.000020 
	C158.000000,24.500000 158.000000,48.000000 158.000000,72.000000 
M138.032898,116.419861 
	C125.644348,107.584106 112.431229,104.342049 97.497437,109.430916 
	C85.163582,113.633820 72.484901,113.600769 60.231689,109.192749 
	C42.375843,102.769203 23.222473,111.372429 13.113311,123.642265 
	C4.016937,134.682861 2.232632,147.522827 2.823449,161.193710 
	C3.253015,171.133423 9.611565,177.723389 19.655050,177.733780 
	C59.469452,177.774948 99.283958,177.775040 139.098343,177.727173 
	C148.060257,177.716400 154.941559,171.884384 155.726135,163.002060 
	C157.315430,145.009003 153.387833,128.874969 138.032898,116.419861 
M73.830780,100.937645 
	C75.996498,100.948891 78.162262,100.974533 80.327934,100.969223 
	C110.840897,100.894424 134.225662,71.136604 127.161781,41.375946 
	C120.852524,14.794502 95.481377,-1.414672 68.766991,4.068545 
	C44.363464,9.077450 26.924910,33.946632 30.667870,58.401825 
	C34.150230,81.154358 49.082340,96.178810 73.830780,100.937645 
z"/>
<path fill="#DB3D59" opacity="1.000000" stroke="none" 
	d="
M138.299408,116.658562 
	C153.387833,128.874969 157.315430,145.009003 155.726135,163.002060 
	C154.941559,171.884384 148.060257,177.716400 139.098343,177.727173 
	C99.283958,177.775040 59.469452,177.774948 19.655050,177.733780 
	C9.611565,177.723389 3.253015,171.133423 2.823449,161.193710 
	C2.232632,147.522827 4.016937,134.682861 13.113311,123.642265 
	C23.222473,111.372429 42.375843,102.769203 60.231689,109.192749 
	C72.484901,113.600769 85.163582,113.633820 97.497437,109.430916 
	C112.431229,104.342049 125.644348,107.584106 138.299408,116.658562 
M37.156765,125.322365 
	C22.698366,132.934387 16.629553,145.155670 19.620073,160.944946 
	C59.388615,160.944946 99.198044,160.944946 139.331100,160.944946 
	C139.331100,158.684021 139.166595,156.852692 139.356186,155.058777 
	C141.583633,133.981949 119.303459,117.425484 100.008812,125.220718 
	C86.243217,130.782150 71.586723,129.693527 57.430153,125.060539 
	C50.864433,122.911797 44.406071,122.533653 37.156765,125.322365 
z"/>
<path fill="#DB3A57" opacity="1.000000" stroke="none" 
	d="
M73.374832,100.925896 
	C49.082340,96.178810 34.150230,81.154358 30.667870,58.401825 
	C26.924910,33.946632 44.363464,9.077450 68.766991,4.068545 
	C95.481377,-1.414672 120.852524,14.794502 127.161781,41.375946 
	C134.225662,71.136604 110.840897,100.894424 80.327934,100.969223 
	C78.162262,100.974533 75.996498,100.948891 73.374832,100.925896 
M104.595200,30.972420 
	C98.835541,24.195051 91.576042,20.095190 82.692406,19.376595 
	C68.811646,18.253788 57.743263,23.515097 50.816380,35.605942 
	C43.937904,47.612297 44.447834,59.989574 52.565086,71.311325 
	C60.705574,82.665482 72.300499,87.142677 85.892700,84.353630 
	C110.314827,79.342339 119.972504,52.214447 104.595200,30.972420 
z"/>
<path fill="#FEFEFE" opacity="1.000000" stroke="none" 
	d="
M37.523308,125.183197 
	C44.406071,122.533653 50.864433,122.911797 57.430153,125.060539 
	C71.586723,129.693527 86.243217,130.782150 100.008812,125.220718 
	C119.303459,117.425484 141.583633,133.981949 139.356186,155.058777 
	C139.166595,156.852692 139.331100,158.684021 139.331100,160.944946 
	C99.198044,160.944946 59.388615,160.944946 19.620073,160.944946 
	C16.629553,145.155670 22.698366,132.934387 37.523308,125.183197 
z"/>
<path fill="#FEFDFD" opacity="1.000000" stroke="none" 
	d="
M104.826744,31.247211 
	C119.972504,52.214447 110.314827,79.342339 85.892700,84.353630 
	C72.300499,87.142677 60.705574,82.665482 52.565086,71.311325 
	C44.447834,59.989574 43.937904,47.612297 50.816380,35.605942 
	C57.743263,23.515097 68.811646,18.253788 82.692406,19.376595 
	C91.576042,20.095190 98.835541,24.195051 104.826744,31.247211 
z"/>
</svg>